<mxfile host="Electron" agent="Mozilla/5.0 (Macintosh; Intel Mac OS X 10_15_7) AppleWebKit/537.36 (KHTML, like Gecko) draw.io/27.0.5 Chrome/134.0.6998.205 Electron/35.3.0 Safari/537.36" version="27.0.5">
  <diagram name="第 1 页" id="FyToPon9Wm2-XqfFhOSk">
    <mxGraphModel dx="1018" dy="674" grid="1" gridSize="10" guides="1" tooltips="1" connect="1" arrows="1" fold="1" page="1" pageScale="1" pageWidth="827" pageHeight="1169" math="0" shadow="0">
      <root>
        <mxCell id="0" />
        <mxCell id="1" parent="0" />
        <mxCell id="-WHN5wgj2qDuHclkZKBB-1" value="" style="endArrow=none;html=1;rounded=0;labelBackgroundColor=none;strokeColor=#006658;fontColor=default;" parent="1" edge="1">
          <mxGeometry width="50" height="50" relative="1" as="geometry">
            <mxPoint x="160" y="440" as="sourcePoint" />
            <mxPoint x="240" y="440" as="targetPoint" />
          </mxGeometry>
        </mxCell>
        <mxCell id="-WHN5wgj2qDuHclkZKBB-2" value="" style="endArrow=none;html=1;rounded=0;labelBackgroundColor=none;strokeColor=#006658;fontColor=default;" parent="1" edge="1">
          <mxGeometry width="50" height="50" relative="1" as="geometry">
            <mxPoint x="160" y="440" as="sourcePoint" />
            <mxPoint x="160" y="120" as="targetPoint" />
          </mxGeometry>
        </mxCell>
        <mxCell id="-WHN5wgj2qDuHclkZKBB-3" value="" style="endArrow=none;html=1;rounded=0;labelBackgroundColor=none;strokeColor=#006658;fontColor=default;" parent="1" edge="1">
          <mxGeometry width="50" height="50" relative="1" as="geometry">
            <mxPoint x="240" y="440" as="sourcePoint" />
            <mxPoint x="240" y="120" as="targetPoint" />
          </mxGeometry>
        </mxCell>
        <mxCell id="-WHN5wgj2qDuHclkZKBB-4" value="10" style="rounded=0;whiteSpace=wrap;html=1;labelBackgroundColor=none;fillColor=#21C0A5;strokeColor=#006658;fontColor=#5C5C5C;" parent="1" vertex="1">
          <mxGeometry x="170" y="390" width="60" height="40" as="geometry" />
        </mxCell>
        <mxCell id="-WHN5wgj2qDuHclkZKBB-5" value="2" style="rounded=0;whiteSpace=wrap;html=1;labelBackgroundColor=none;fillColor=#21C0A5;strokeColor=#006658;fontColor=#5C5C5C;" parent="1" vertex="1">
          <mxGeometry x="170" y="350" width="60" height="40" as="geometry" />
        </mxCell>
        <mxCell id="-WHN5wgj2qDuHclkZKBB-6" value="30" style="rounded=0;whiteSpace=wrap;html=1;labelBackgroundColor=none;fillColor=#21C0A5;strokeColor=#006658;fontColor=#5C5C5C;" parent="1" vertex="1">
          <mxGeometry x="170" y="310" width="60" height="40" as="geometry" />
        </mxCell>
        <mxCell id="-WHN5wgj2qDuHclkZKBB-7" value="21" style="rounded=0;whiteSpace=wrap;html=1;labelBackgroundColor=none;fillColor=#21C0A5;strokeColor=#006658;fontColor=#5C5C5C;" parent="1" vertex="1">
          <mxGeometry x="170" y="270" width="60" height="40" as="geometry" />
        </mxCell>
        <mxCell id="-WHN5wgj2qDuHclkZKBB-8" value="5" style="rounded=0;whiteSpace=wrap;html=1;labelBackgroundColor=none;fillColor=#21C0A5;strokeColor=#006658;fontColor=#5C5C5C;" parent="1" vertex="1">
          <mxGeometry x="170" y="230" width="60" height="40" as="geometry" />
        </mxCell>
        <mxCell id="-WHN5wgj2qDuHclkZKBB-9" value="8" style="rounded=0;whiteSpace=wrap;html=1;labelBackgroundColor=none;fillColor=#21C0A5;strokeColor=#006658;fontColor=#5C5C5C;" parent="1" vertex="1">
          <mxGeometry x="170" y="190" width="60" height="40" as="geometry" />
        </mxCell>
        <mxCell id="-WHN5wgj2qDuHclkZKBB-10" value="栈顶" style="text;html=1;align=center;verticalAlign=middle;resizable=0;points=[];autosize=1;strokeColor=none;fillColor=none;labelBackgroundColor=none;fontColor=#5C5C5C;fontSize=20;" parent="1" vertex="1">
          <mxGeometry x="170" y="65" width="60" height="40" as="geometry" />
        </mxCell>
        <mxCell id="-WHN5wgj2qDuHclkZKBB-11" value="栈底" style="text;html=1;align=center;verticalAlign=middle;resizable=0;points=[];autosize=1;strokeColor=none;fillColor=none;labelBackgroundColor=none;fontColor=#5C5C5C;fontSize=20;" parent="1" vertex="1">
          <mxGeometry x="170" y="443" width="60" height="40" as="geometry" />
        </mxCell>
        <mxCell id="-WHN5wgj2qDuHclkZKBB-12" value="" style="endArrow=classic;html=1;rounded=0;labelBackgroundColor=none;strokeColor=#006658;fontColor=default;" parent="1" edge="1">
          <mxGeometry width="50" height="50" relative="1" as="geometry">
            <mxPoint x="120" y="120" as="sourcePoint" />
            <mxPoint x="120" y="170" as="targetPoint" />
          </mxGeometry>
        </mxCell>
        <mxCell id="-WHN5wgj2qDuHclkZKBB-13" value="" style="endArrow=classic;html=1;rounded=0;labelBackgroundColor=none;strokeColor=#006658;fontColor=default;" parent="1" edge="1">
          <mxGeometry width="50" height="50" relative="1" as="geometry">
            <mxPoint x="280" y="170" as="sourcePoint" />
            <mxPoint x="280" y="120" as="targetPoint" />
          </mxGeometry>
        </mxCell>
        <mxCell id="-WHN5wgj2qDuHclkZKBB-14" value="入栈" style="text;html=1;align=center;verticalAlign=middle;resizable=0;points=[];autosize=1;strokeColor=none;fillColor=none;labelBackgroundColor=none;fontColor=#5C5C5C;fontSize=20;" parent="1" vertex="1">
          <mxGeometry x="65" y="123" width="60" height="40" as="geometry" />
        </mxCell>
        <mxCell id="-WHN5wgj2qDuHclkZKBB-15" value="出栈" style="text;html=1;align=center;verticalAlign=middle;resizable=0;points=[];autosize=1;strokeColor=none;fillColor=none;labelBackgroundColor=none;fontColor=#5C5C5C;fontSize=20;" parent="1" vertex="1">
          <mxGeometry x="275" y="123" width="60" height="40" as="geometry" />
        </mxCell>
        <mxCell id="-WHN5wgj2qDuHclkZKBB-16" value="1" style="rounded=0;whiteSpace=wrap;html=1;labelBackgroundColor=none;fillColor=#21C0A5;strokeColor=#006658;fontColor=#5C5C5C;" parent="1" vertex="1">
          <mxGeometry x="360" y="390" width="60" height="40" as="geometry" />
        </mxCell>
        <mxCell id="-WHN5wgj2qDuHclkZKBB-17" value="..." style="rounded=0;whiteSpace=wrap;html=1;labelBackgroundColor=none;fillColor=#21C0A5;strokeColor=#006658;fontColor=#5C5C5C;" parent="1" vertex="1">
          <mxGeometry x="430" y="390" width="60" height="40" as="geometry" />
        </mxCell>
        <mxCell id="-WHN5wgj2qDuHclkZKBB-18" value="新元素" style="text;html=1;align=center;verticalAlign=middle;resizable=0;points=[];autosize=1;strokeColor=none;fillColor=none;labelBackgroundColor=none;fontColor=#5C5C5C;fontSize=20;" parent="1" vertex="1">
          <mxGeometry x="390" y="345" width="80" height="40" as="geometry" />
        </mxCell>
      </root>
    </mxGraphModel>
  </diagram>
</mxfile>
